<svg xmlns="http://www.w3.org/2000/svg" viewBox="0 0 900 100" preserveAspectRatio="xMidYMid meet" role="img" aria-labelledby="dbTitle">
<title id="dbTitle">Botanical divider with bee</title>
<defs>
<linearGradient id="beLeaf" x1="0" y1="0" x2="0" y2="1"><stop offset="0" stop-color="#cfdcbd"/><stop offset="1" stop-color="#9db482"/></linearGradient>
<linearGradient id="beBody" x1="0" y1="0" x2="0" y2="1"><stop offset="0" stop-color="#e6c46e"/><stop offset="1" stop-color="#c99436"/></linearGradient>
<radialGradient id="beWing" cx="50%" cy="40%" r="60%"><stop offset="0" stop-color="#fffdf7"/><stop offset="1" stop-color="#eef4e9"/></radialGradient>
<g id="beLeaf1">
<path d="M0 0 C6 -4.5 6 -15 0 -23 C-6 -15 -6 -4.5 0 0 Z" fill="url(#beLeaf)" stroke="#365c3b" stroke-width="1.5" stroke-linejoin="round"/>
<path d="M0 -1 L0 -20" fill="none" stroke="#3f6544" stroke-width="0.9"/>
<path d="M0 -7 C1.9 -8.3 2.9 -10 3.6 -12.5 M0 -12 C1.9 -13.3 2.9 -15 3.6 -17.5 M0 -7 C-1.9 -8.3 -2.9 -10 -3.6 -12.5 M0 -12 C-1.9 -13.3 -2.9 -15 -3.6 -17.5" fill="none" stroke="#5b7a4c" stroke-width="0.8"/>
</g>
</defs>
<path d="M52 53 C185 24 314 24 418 51" fill="none" stroke="#6d8b5b" stroke-width="3.4" stroke-linecap="round"/>
<path d="M482 51 C586 24 715 24 848 53" fill="none" stroke="#6d8b5b" stroke-width="3.4" stroke-linecap="round"/>
<use href="#beLeaf1" transform="translate(133 45) rotate(-62) scale(0.92)"/>
<use href="#beLeaf1" transform="translate(208 34) rotate(-46) scale(0.86)"/>
<use href="#beLeaf1" transform="translate(280 36) rotate(-30) scale(0.8)"/>
<use href="#beLeaf1" transform="translate(352 46) rotate(-16) scale(0.74)"/>
<use href="#beLeaf1" transform="translate(767 45) rotate(62) scale(0.92)"/>
<use href="#beLeaf1" transform="translate(692 34) rotate(46) scale(0.86)"/>
<use href="#beLeaf1" transform="translate(620 36) rotate(30) scale(0.8)"/>
<use href="#beLeaf1" transform="translate(548 46) rotate(16) scale(0.74)"/>
<g>
<path d="M436 30 C420 22 408 34 420 42 C426 40 432 36 438 33 Z" fill="url(#beWing)" stroke="#365c3b" stroke-width="1.3" opacity="0.9"/>
<path d="M464 30 C480 22 492 34 480 42 C474 40 468 36 462 33 Z" fill="url(#beWing)" stroke="#365c3b" stroke-width="1.3" opacity="0.9"/>
<ellipse cx="450" cy="52" rx="17" ry="11.5" fill="url(#beBody)" stroke="#3a2f1b" stroke-width="1.8"/>
<path d="M441 44 C444 51 444 54 442 60 M450 42 V63 M459 44 C456 51 456 54 458 60" fill="none" stroke="#3a2f1b" stroke-width="2"/>
<path d="M433 50 C427 48 423 47 419 48 M467 50 C473 48 477 47 481 48" fill="none" stroke="#6d8b5b" stroke-width="2" stroke-linecap="round"/>
<circle cx="428" cy="47" r="2.4" fill="#3a2f1b"/><circle cx="472" cy="47" r="2.4" fill="#3a2f1b"/>
</g>
<circle cx="352" cy="48" r="2.6" fill="#d8b45e"/><circle cx="548" cy="48" r="2.6" fill="#d8b45e"/>
</svg>
