<svg xmlns="http://www.w3.org/2000/svg" viewBox="0 0 160 160" role="img" aria-labelledby="logoTitle">
<title id="logoTitle">Awakening Eden Tree of Life Logo</title>
<defs>
<linearGradient id="lgLeaf" x1="0" y1="0" x2="0" y2="1">
<stop offset="0" stop-color="#cfdcbd"/><stop offset="1" stop-color="#95ad79"/>
</linearGradient>
<radialGradient id="lgHeart" cx="50%" cy="36%" r="72%">
<stop offset="0" stop-color="#e7f0d9"/><stop offset="0.6" stop-color="#c3d5a9"/><stop offset="1" stop-color="#a0b884"/>
</radialGradient>
<g id="lgLeafShape">
<path d="M0 0 C6 -4.5 6 -14.5 0 -22 C-6 -14.5 -6 -4.5 0 0 Z" fill="url(#lgLeaf)" stroke="#2f5236" stroke-width="1.6" stroke-linejoin="round"/>
<path d="M0 -1 L0 -20" fill="none" stroke="#2f5236" stroke-width="1"/>
<path d="M0 -7 C1.8 -8.3 2.8 -10 3.4 -12.4 M0 -11.5 C1.8 -12.8 2.8 -14.5 3.4 -16.9 M0 -7 C-1.8 -8.3 -2.8 -10 -3.4 -12.4 M0 -11.5 C-1.8 -12.8 -2.8 -14.5 -3.4 -16.9" fill="none" stroke="#4d6b40" stroke-width="0.85"/>
</g>
</defs>
<circle cx="80" cy="80" r="70" fill="none" stroke="#2f5236" stroke-width="4" opacity="0.95"/>
<circle cx="80" cy="80" r="62" fill="none" stroke="#6d8b5b" stroke-width="1.4" opacity="0.6"/>
<path d="M80 96 C60 74 44 68 44 51 C44 39 57 34.5 69 44 C74 47.8 77.5 52.5 80 57.5 C82.5 52.5 86 47.8 91 44 C103 34.5 116 39 116 51 C116 68 100 74 80 96 Z" fill="url(#lgHeart)" stroke="#2f5236" stroke-width="3" stroke-linejoin="round"/>
<path d="M80 96 V122 M80 104 C70 103 61 108 52 121 M80 104 C90 103 99 108 108 121 M80 114 C73 116 68 121 62 130 M80 114 C87 116 92 121 98 130" fill="none" stroke="#2f5236" stroke-width="3.6" stroke-linecap="round" stroke-linejoin="round"/>
<path d="M80 92 V56 M80 72 C70 70 61 65 53 57 M80 72 C90 70 99 65 107 57 M80 82 C72 81 65 77 57 72 M80 82 C88 81 95 77 103 72" fill="none" stroke="#3f6544" stroke-width="2.2" stroke-linecap="round" opacity="0.9"/>
<use href="#lgLeafShape" transform="translate(80 58) scale(0.95)"/>
<use href="#lgLeafShape" transform="translate(64 62) rotate(-32) scale(0.82)"/>
<use href="#lgLeafShape" transform="translate(96 62) rotate(32) scale(0.82)"/>
<use href="#lgLeafShape" transform="translate(53 70) rotate(-58) scale(0.72)"/>
<use href="#lgLeafShape" transform="translate(107 70) rotate(58) scale(0.72)"/>
<circle cx="70" cy="78" r="2.6" fill="#d8b45e"/><circle cx="90" cy="78" r="2.6" fill="#d8b45e"/><circle cx="80" cy="86" r="2.4" fill="#c98a3c"/>
<path d="M58 132 C68 128 92 128 102 132" fill="none" stroke="#6d8b5b" stroke-width="1.6" stroke-linecap="round" opacity="0.55"/>
</svg>
