<svg xmlns="http://www.w3.org/2000/svg" viewBox="0 0 900 100" preserveAspectRatio="xMidYMid meet"><defs><style>.l{fill:none;stroke:#6d8b5b;stroke-width:3.5;stroke-linecap:round}.w{fill:#d8b9a3;stroke:#365c3b;stroke-width:2}.b{fill:#365c3b}</style></defs><path class="l" d="M55 55C190 31 315 31 410 52M490 52C585 31 710 31 845 55"/><ellipse class="w" cx="435" cy="43" rx="21" ry="13" transform="rotate(28 435 43)"/><ellipse class="w" cx="465" cy="43" rx="21" ry="13" transform="rotate(-28 465 43)"/><ellipse class="w" cx="438" cy="64" rx="15" ry="10" transform="rotate(-22 438 64)"/><ellipse class="w" cx="462" cy="64" rx="15" ry="10" transform="rotate(22 462 64)"/><path class="b" d="M447 35h6v38h-6z"/><path class="l" d="M449 36c-10-10-15-11-20-10M451 36c10-10 15-11 20-10"/></svg>