<svg xmlns="http://www.w3.org/2000/svg" viewBox="0 0 1100 180" preserveAspectRatio="xMidYMid meet" role="img" aria-labelledby="ftTitle">
<title id="ftTitle">Seed to Tree of Life growth sequence</title>
<defs>
<linearGradient id="ftLeaf" x1="0" y1="0" x2="0" y2="1"><stop offset="0" stop-color="#cfdcbd"/><stop offset="1" stop-color="#9db482"/></linearGradient>
<radialGradient id="ftSeed" cx="50%" cy="40%" r="60%"><stop offset="0" stop-color="#cf8a5c"/><stop offset="1" stop-color="#a95f38"/></radialGradient>
<g id="ftLeaf1">
<path d="M0 0 C7 -5 7 -17 0 -26 C-7 -17 -7 -5 0 0 Z" fill="url(#ftLeaf)" stroke="#365c3b" stroke-width="1.6" stroke-linejoin="round"/>
<path d="M0 -1 L0 -23" fill="none" stroke="#3f6544" stroke-width="1"/>
<path d="M0 -8 C2.2 -9.6 3.3 -11.4 4.1 -14.4 M0 -14 C2.2 -15.6 3.3 -17.4 4.1 -20.4 M0 -8 C-2.2 -9.6 -3.3 -11.4 -4.1 -14.4 M0 -14 C-2.2 -15.6 -3.3 -17.4 -4.1 -20.4" fill="none" stroke="#5b7a4c" stroke-width="0.85"/>
</g>
</defs>
<path d="M40 148 H1060" fill="none" stroke="#6d8b5b" stroke-width="2" stroke-linecap="round" opacity="0.3"/>
<g transform="translate(100 132)">
<ellipse rx="12" ry="8" transform="rotate(-18)" fill="url(#ftSeed)" stroke="#7d4a2c" stroke-width="1.5"/>
<path d="M0 8 C-8 20 -18 24 -28 32 M0 8 C9 19 20 22 32 29" fill="none" stroke="#6d8b5b" stroke-width="2" stroke-linecap="round" opacity="0.5"/>
</g>
<g transform="translate(280 128)">
<path d="M0 6 V-30" fill="none" stroke="#6d8b5b" stroke-width="2.4" stroke-linecap="round"/>
<ellipse rx="9" ry="6" cy="8" transform="rotate(-14)" fill="url(#ftSeed)" stroke="#7d4a2c" stroke-width="1.4"/>
<use href="#ftLeaf1" transform="translate(0 -30) scale(0.72)"/>
<use href="#ftLeaf1" transform="translate(-2 -22) rotate(-42) scale(0.6)"/>
<use href="#ftLeaf1" transform="translate(2 -22) rotate(42) scale(0.6)"/>
</g>
<g transform="translate(480 130)">
<path d="M0 4 V-72 M0 -46 C-24 -52 -42 -66 -52 -86 M0 -46 C24 -52 42 -66 52 -86 M0 -22 C-26 -26 -47 -38 -70 -54 M0 -22 C26 -26 47 -38 70 -54" fill="none" stroke="#6d8b5b" stroke-width="2.8" stroke-linecap="round"/>
<use href="#ftLeaf1" transform="translate(-52 -86) rotate(-46) scale(0.78)"/>
<use href="#ftLeaf1" transform="translate(52 -86) rotate(46) scale(0.78)"/>
<use href="#ftLeaf1" transform="translate(-70 -54) rotate(-72) scale(0.74)"/>
<use href="#ftLeaf1" transform="translate(70 -54) rotate(72) scale(0.74)"/>
<use href="#ftLeaf1" transform="translate(0 -72) scale(0.72)"/>
<circle cx="0" cy="-40" r="2.6" fill="#d8b45e"/>
</g>
<g transform="translate(760 126)">
<path d="M0 6 V-102 M0 -70 C-36 -76 -70 -96 -90 -122 M0 -70 C36 -76 70 -96 90 -122 M0 -44 C-42 -46 -79 -60 -116 -82 M0 -44 C42 -46 79 -60 116 -82 M0 6 C-36 10 -70 26 -102 52 M0 6 C36 10 70 26 102 52" fill="none" stroke="#365c3b" stroke-width="3" stroke-linecap="round"/>
<use href="#ftLeaf1" transform="translate(-90 -122) rotate(-46) scale(0.9)"/>
<use href="#ftLeaf1" transform="translate(90 -122) rotate(46) scale(0.9)"/>
<use href="#ftLeaf1" transform="translate(-116 -82) rotate(-72) scale(0.86)"/>
<use href="#ftLeaf1" transform="translate(116 -82) rotate(72) scale(0.86)"/>
<use href="#ftLeaf1" transform="translate(-102 52) rotate(-116) scale(0.78)"/>
<use href="#ftLeaf1" transform="translate(102 52) rotate(116) scale(0.78)"/>
<use href="#ftLeaf1" transform="translate(0 -104) scale(0.82)"/>
<circle cx="-40" cy="-96" r="3" fill="#d8b45e"/><circle cx="40" cy="-96" r="3" fill="#d8b45e"/><circle cx="0" cy="-60" r="3" fill="#c98a3c"/>
</g>
<g transform="translate(1000 78)" opacity="0.9">
<path d="M0 0 C18 -18 42 -14 54 4 C32 6 15 4 0 0 Z" fill="url(#ftLeaf)" stroke="#365c3b" stroke-width="1.6" stroke-linejoin="round"/>
<path d="M0 0 C-18 -18 -42 -14 -54 4 C-32 6 -15 4 0 0 Z" fill="url(#ftLeaf)" stroke="#365c3b" stroke-width="1.6" stroke-linejoin="round"/>
<path d="M0 0 C18 18 42 14 54 -4 C32 -6 15 -4 0 0 Z" fill="url(#ftLeaf)" stroke="#365c3b" stroke-width="1.6" stroke-linejoin="round"/>
<path d="M0 0 C-18 18 -42 14 -54 -4 C-32 -6 -15 -4 0 0 Z" fill="url(#ftLeaf)" stroke="#365c3b" stroke-width="1.6" stroke-linejoin="round"/>
<circle r="4.5" fill="#d8b45e" stroke="#c98a3c" stroke-width="1.2"/>
</g>
</svg>
