<svg xmlns="http://www.w3.org/2000/svg" viewBox="0 0 1100 180" preserveAspectRatio="xMidYMid meet" role="img" aria-labelledby="title">
<title>Seed to Tree of Life growth sequence</title>
<defs><style>.l{fill:none;stroke:#365c3b;stroke-width:3;stroke-linecap:round;stroke-linejoin:round}.leaf{fill:#b9c8a7;stroke:#365c3b;stroke-width:1.8}.seed{fill:#b56a42;stroke:#2e2e2b;stroke-width:1.5}</style></defs>
<path class="l" d="M40 145 H1060" opacity=".25"/>
<g transform="translate(100 130)"><ellipse class="seed" rx="12" ry="8" transform="rotate(-18)"/><path class="l" d="M0 8 C-8 20 -18 24 -28 32 M0 8 C9 19 20 22 32 29" opacity=".5"/></g>
<g transform="translate(280 126)"><ellipse class="seed" rx="10" ry="7" transform="rotate(-18)"/><path class="l" d="M0 0 C0 -22 12 -34 26 -42"/><ellipse class="leaf" cx="27" cy="-43" rx="8" ry="15" transform="rotate(38 27 -43)"/><path class="l" d="M0 8 C-16 16 -29 27 -44 43 M0 8 C16 17 31 26 47 43"/></g>
<g transform="translate(480 130)"><path class="l" d="M0 0 V-80 M0 -50 C-28 -58 -48 -75 -58 -98 M0 -50 C28 -58 48 -75 58 -98 M0 -22 C-28 -28 -51 -38 -76 -55 M0 -22 C28 -28 51 -38 76 -55"/><ellipse class="leaf" cx="-58" cy="-96" rx="8" ry="16" transform="rotate(-45 -58 -96)"/><ellipse class="leaf" cx="58" cy="-96" rx="8" ry="16" transform="rotate(45 58 -96)"/><ellipse class="leaf" cx="-73" cy="-55" rx="8" ry="16" transform="rotate(-72 -73 -55)"/><ellipse class="leaf" cx="73" cy="-55" rx="8" ry="16" transform="rotate(72 73 -55)"/></g>
<g transform="translate(760 126)"><path class="l" d="M0 4 V-104 M0 -70 C-38 -76 -72 -98 -92 -126 M0 -70 C38 -76 72 -98 92 -126 M0 -42 C-44 -44 -81 -60 -119 -84 M0 -42 C44 -44 81 -60 119 -84 M0 4 C-38 8 -72 26 -106 54 M0 4 C38 8 72 26 106 54"/><ellipse class="leaf" cx="-92" cy="-124" rx="9" ry="18" transform="rotate(-45 -92 -124)"/><ellipse class="leaf" cx="92" cy="-124" rx="9" ry="18" transform="rotate(45 92 -124)"/><ellipse class="leaf" cx="-116" cy="-84" rx="9" ry="18" transform="rotate(-72 -116 -84)"/><ellipse class="leaf" cx="116" cy="-84" rx="9" ry="18" transform="rotate(72 116 -84)"/><path class="l" d="M0 4 C-25 17 -42 32 -60 58 M0 4 C25 17 42 32 60 58" opacity=".75"/></g>
<g transform="translate(995 75)" opacity=".85"><path class="l" d="M0 0 c18 -18 42 -14 54 4 c-22 2 -39 0 -54 -4Z"/><path class="l" d="M0 0 c-18 -18 -42 -14 -54 4 c22 2 39 0 54 -4Z"/><path class="l" d="M0 0 c18 18 42 14 54 -4 c-22 -2 -39 0 -54 4Z"/><path class="l" d="M0 0 c-18 18 -42 14 -54 -4 c22 -2 39 0 54 4Z"/></g>
</svg>